<svg id="Ebene_1" data-name="Ebene 1" xmlns="http://www.w3.org/2000/svg" xmlns:xlink="http://www.w3.org/1999/xlink" viewBox="0 0 464.77 75.94"><defs><style>.cls-1{fill:none;}.cls-2{clip-path:url(#clip-path);}.cls-3{clip-path:url(#clip-path-2);}.cls-4,.cls-6{fill:#fff;}.cls-4,.cls-5{fill-rule:evenodd;}.cls-5{fill:#004f9f;}</style><clipPath id="clip-path" transform="translate(-65.25 -171.79)"><rect class="cls-1" width="595.28" height="419.53"/></clipPath><clipPath id="clip-path-2" transform="translate(-65.25 -171.79)"><rect class="cls-1" y="-0.11" width="595.2" height="419.52"/></clipPath></defs><g class="cls-2"><g class="cls-3"><path class="cls-4" d="M140.2,172.79H66.25v73.94H140.2Zm-74.95-1H141.2v75.94H65.75v-.5h-.5Z" transform="translate(-65.25 -171.79)"/><path class="cls-5" d="M75.38,215.2a99.64,99.64,0,0,1,42.22-9.71c23.81,0,33,10.73,55.15,10.73a133.7,133.7,0,0,0,39.56-6s-18.17,9.95-46.77,9.95S131.72,210,109.77,209.72c-22.72-.27-34.39,5.48-34.39,5.48" transform="translate(-65.25 -171.79)"/><path class="cls-4" d="M66.14,224.39a99.61,99.61,0,0,1,42.22-9.72c23.82,0,33,10.73,55.15,10.73a133.7,133.7,0,0,0,39.56-6s-18.17,9.95-46.76,9.95-33.83-10.16-55.78-10.42c-22.72-.27-34.39,5.49-34.39,5.49" transform="translate(-65.25 -171.79)"/><path class="cls-4" d="M527.26,246.58c-1.53,0-2.83,0-3.91-.12s-2.16-.19-3.25-.35a14.71,14.71,0,0,1-5.54-2,16.38,16.38,0,0,1-4.31-3.76,17.21,17.21,0,0,1-2.81-5.15A19.19,19.19,0,0,1,507,224.7a19.22,19.22,0,0,1,1.45-4,17.73,17.73,0,0,1,2.27-3.49,14.88,14.88,0,0,1,3-2.71,17.8,17.8,0,0,1,2.58-1.43,14.5,14.5,0,0,1,2.94-.93,25.19,25.19,0,0,1,3.7-.49c1.37-.1,3-.14,4.82-.14H530V220h-1l-2.15,0q-.89,0-1.92.12a9.33,9.33,0,0,0-6.18,2.67,8.74,8.74,0,0,0-2.15,6.22,9.85,9.85,0,0,0,1,4.63,7.2,7.2,0,0,0,2.93,3.05,9.11,9.11,0,0,0,1.5.63,12.61,12.61,0,0,0,1.8.42,19.87,19.87,0,0,0,2.24.23c.83,0,1.79.07,2.88.07h1v8.52h-2.76" transform="translate(-65.25 -171.79)"/><rect class="cls-6" x="428.36" y="39.69" width="9.64" height="8.52"/><rect class="cls-6" x="428.36" y="52.98" width="9.64" height="21.8"/><path class="cls-4" d="M462.41,211.49h16a17.79,17.79,0,0,1,5.14.63,9.58,9.58,0,0,1,3.61,2,7.55,7.55,0,0,1,2.1,3.6,24.51,24.51,0,0,1,.61,5v23.86h-9.64V224.17a16.48,16.48,0,0,0-.12-2.27,2.07,2.07,0,0,0-.53-1.24,2.2,2.2,0,0,0-1.29-.54A18.19,18.19,0,0,0,476,220h-3.89v26.58h-9.68V211.49" transform="translate(-65.25 -171.79)"/><path class="cls-4" d="M449.21,229a12.44,12.44,0,0,0-.6-3.95,10,10,0,0,0-1.71-3.14,8,8,0,0,0-2.58-2.08,7.22,7.22,0,0,0-6.41,0,7.82,7.82,0,0,0-2.55,2.08,10.15,10.15,0,0,0-1.68,3.14,13.13,13.13,0,0,0,0,7.91,10.09,10.09,0,0,0,1.68,3.13,7.82,7.82,0,0,0,2.55,2.08,7.22,7.22,0,0,0,6.41,0,8,8,0,0,0,2.58-2.08,10,10,0,0,0,1.71-3.13,12.46,12.46,0,0,0,.6-4m10.11,0a17.68,17.68,0,0,1-1.43,7.09,18.35,18.35,0,0,1-9.68,9.69,18.36,18.36,0,0,1-14.16,0,18.22,18.22,0,0,1-5.78-3.91,18.71,18.71,0,0,1-3.88-5.78,18.29,18.29,0,0,1,0-14.18,18.82,18.82,0,0,1,3.88-5.78,18.19,18.19,0,0,1,5.78-3.9,18.24,18.24,0,0,1,14.16,0,18.29,18.29,0,0,1,9.68,9.68A17.72,17.72,0,0,1,459.32,229Z" transform="translate(-65.25 -171.79)"/><path class="cls-4" d="M395.92,211.49h12.3l3,0a16.65,16.65,0,0,1,1.92.12,7,7,0,0,1,1.42.3c.43.14.95.34,1.57.58q4.92,2.07,4.92,8.8t-6.88,8.38l1.24.25a4.66,4.66,0,0,1,.89.31,6.43,6.43,0,0,1,.77.42,6.27,6.27,0,0,1,.79.61,4.16,4.16,0,0,1,1.31,2.1,14.88,14.88,0,0,1,.38,3.84v9.36h-9.69v-8.19a8.68,8.68,0,0,0-.51-3.16,2.7,2.7,0,0,0-1.55-1.47,7.33,7.33,0,0,0-1.45-.35,11.56,11.56,0,0,0-1.73-.12H396v-8.52h11.47c.25,0,.47,0,.67,0l.64,0a2.2,2.2,0,0,0,2.15-2.34,2.65,2.65,0,0,0-.28-1.2,1.9,1.9,0,0,0-.8-.81,2.61,2.61,0,0,0-1.07-.33,4.72,4.72,0,0,0-.64-.05H395.92v-8.51" transform="translate(-65.25 -171.79)"/><rect class="cls-6" x="303.15" y="39.69" width="25.13" height="8.52"/><rect class="cls-6" x="287.61" y="53.12" width="15.78" height="8.24"/><polyline class="cls-4" points="274.8 75.44 263.47 49.33 269.6 39.04 274.7 53.35 279.1 39.69 289.26 39.69"/><polyline class="cls-4" points="260.9 75.44 245.22 39.69 256.03 39.69 266.84 65.43"/><path class="cls-4" d="M302.39,229a12.16,12.16,0,0,0-.61-3.95,9.8,9.8,0,0,0-1.71-3.14,8,8,0,0,0-2.57-2.08,7.22,7.22,0,0,0-6.41,0,7.82,7.82,0,0,0-2.55,2.08,10.17,10.17,0,0,0-1.69,3.14,13.13,13.13,0,0,0,0,7.91,10.11,10.11,0,0,0,1.69,3.13,7.82,7.82,0,0,0,2.55,2.08,7.22,7.22,0,0,0,6.41,0,8,8,0,0,0,2.57-2.08,9.75,9.75,0,0,0,1.71-3.13,12.18,12.18,0,0,0,.61-4m10.11,0a17.68,17.68,0,0,1-1.43,7.09,18.41,18.41,0,0,1-9.69,9.69,18.34,18.34,0,0,1-14.15,0,18.11,18.11,0,0,1-5.78-3.91,18.53,18.53,0,0,1-3.88-5.78,18.29,18.29,0,0,1,0-14.18,18.65,18.65,0,0,1,3.88-5.78,18.08,18.08,0,0,1,5.78-3.9,18.22,18.22,0,0,1,14.15,0,18.35,18.35,0,0,1,9.69,9.68A17.72,17.72,0,0,1,312.5,229Z" transform="translate(-65.25 -171.79)"/><polyline class="cls-4" points="188.8 74.79 188.8 39.69 198.49 39.69 198.49 66.27 210.46 66.27 210.46 74.79"/><polyline class="cls-4" points="171.77 61.5 171.77 74.79 162.08 74.79 162.08 52.98 185.48 52.98 185.48 61.5"/><rect class="cls-6" x="162.08" y="39.69" width="23.4" height="8.52"/><rect class="cls-6" x="311.35" y="53.03" width="10.27" height="21.75"/></g></g></svg>